<svg width="289" height="289" viewBox="0 0 289 289" fill="none" xmlns="http://www.w3.org/2000/svg">
<path d="M144.5 275.453C216.823 275.453 275.453 216.823 275.453 144.5C275.453 72.1766 216.823 13.5469 144.5 13.5469C72.1766 13.5469 13.5469 72.1766 13.5469 144.5C13.5469 216.823 72.1766 275.453 144.5 275.453Z" fill="#F85565"/>
<path opacity="0.2" d="M119.664 241.586C90.4564 241.622 61.784 233.75 36.6895 218.805C53.3203 242.892 77.5415 260.712 105.486 269.422C133.431 278.131 163.488 277.228 190.859 266.855C218.23 256.482 241.337 237.238 256.49 212.195C271.643 187.152 277.97 157.755 274.46 128.695C263.939 161.481 243.279 190.079 215.46 210.368C187.64 230.656 154.096 241.588 119.664 241.586Z" fill="#393C54"/>
<path d="M203.88 171.91C208.193 173.039 211.805 167.981 211.286 163.556C207.199 129.915 178.864 110.633 144.5 110.633C110.136 110.633 81.8005 129.915 77.7139 163.556C77.172 168.072 80.8071 173.106 85.1195 171.91C108.194 165.407 179.293 165.52 203.88 171.91Z" fill="#393C54"/>
<path d="M187.398 169.155V153.847C187.398 151.452 186.447 149.155 184.753 147.461C183.06 145.768 180.762 144.816 178.367 144.816H110.633C108.238 144.816 105.94 145.768 104.247 147.461C102.553 149.155 101.602 151.452 101.602 153.847V169.065C130.14 166.392 158.866 166.423 187.398 169.155Z" fill="white"/>
<path d="M187.398 129.011V123.141C174.715 114.681 159.742 110.315 144.5 110.633C129.258 110.315 114.285 114.681 101.602 123.141V129.011C101.602 131.407 102.553 133.704 104.247 135.397C105.94 137.091 108.238 138.043 110.633 138.043H178.367C180.762 138.043 183.06 137.091 184.753 135.397C186.447 133.704 187.398 131.407 187.398 129.011Z" fill="white"/>
<path opacity="0.1" d="M101.602 162.292V169.065C130.137 166.362 158.863 166.362 187.398 169.065V162.292C158.863 159.589 130.137 159.589 101.602 162.292Z" fill="#515570"/>
<path opacity="0.1" d="M144.5 119.664C159.534 119.354 174.312 123.587 186.902 131.811C187.214 130.91 187.382 129.965 187.398 129.011V123.141C174.715 114.681 159.742 110.315 144.5 110.633C129.258 110.315 114.285 114.681 101.602 123.141V129.011C101.616 129.973 101.784 130.925 102.098 131.834C114.685 123.602 129.463 119.36 144.5 119.664Z" fill="#515570"/>
<path d="M72.25 81.2812C72.25 81.2812 92.5703 76.7656 103.859 90.3125C92.5703 88.0547 76.7656 94.8281 69.9922 103.859" stroke="#393C54" stroke-width="4" stroke-linecap="round" stroke-linejoin="round"/>
<path d="M216.75 81.2812C216.75 81.2812 196.43 76.7656 185.141 90.3125C196.43 88.0547 212.234 94.8281 219.008 103.859" stroke="#393C54" stroke-width="4" stroke-linecap="round" stroke-linejoin="round"/>
<path opacity="0.2" d="M128.695 180.625H160.305" stroke="#393C54" stroke-width="4" stroke-linecap="round" stroke-linejoin="round"/>
</svg>
